<svg width="14" height="14" viewBox="0 0 14 14" fill="none" xmlns="http://www.w3.org/2000/svg">
<path d="M4.10667 0.399493L5.41917 3.46199C5.47493 3.59282 5.48667 3.73822 5.45265 3.8763C5.41862 4.01438 5.34066 4.13768 5.2305 4.22762L3.57347 5.58387C4.57704 7.71238 6.29 9.42534 8.41851 10.4289L9.77476 8.77188C9.86453 8.66149 9.98782 8.58337 10.126 8.54933C10.2641 8.51528 10.4096 8.52717 10.5404 8.5832L13.6029 9.8957C13.7439 9.9572 13.859 10.066 13.9284 10.2032C13.9977 10.3405 14.017 10.4977 13.983 10.6477L13.3267 13.4914C13.2933 13.636 13.2119 13.765 13.0957 13.8574C12.9796 13.9498 12.8355 14 12.6871 14C5.67347 14 -0.000360737 8.31524 -0.000361043 1.3125C-0.000456417 1.16405 0.049786 1.01995 0.142161 0.903732C0.234537 0.787518 0.363585 0.706059 0.508232 0.672657L3.35198 0.0164065C3.5027 -0.0174642 3.6605 0.00225685 3.79825 0.0721764C3.93599 0.142096 4.04505 0.257841 4.10667 0.399493Z" fill="#A9C5E0"/>
</svg>
