<svg width="16" height="16" viewBox="0 0 16 16" fill="none" xmlns="http://www.w3.org/2000/svg">
<path d="M15.9158 0.217107C15.9093 0.185492 15.8939 0.156392 15.8715 0.13322C15.849 0.110047 15.8204 0.0937616 15.789 0.0862729C13.6972 -0.425627 8.86394 1.39855 6.24533 4.01846C5.77828 4.48216 5.35249 4.98571 4.97281 5.52342C4.1653 5.45192 3.35779 5.51162 2.66956 5.8119C0.727746 6.66733 0.16238 8.89938 0.00487797 9.85955C-0.00405585 9.9121 -0.000686009 9.96601 0.0147224 10.017C0.0301307 10.0681 0.0571574 10.1148 0.0936769 10.1536C0.130196 10.1924 0.175213 10.2222 0.225185 10.2407C0.275157 10.2591 0.328723 10.2657 0.381669 10.2599L3.49993 9.91567C3.50216 10.151 3.51634 10.386 3.54243 10.6199C3.55812 10.7823 3.63015 10.9341 3.74601 11.0489L4.95352 12.2546C5.06831 12.3704 5.21989 12.4425 5.3821 12.4584C5.61445 12.4844 5.84797 12.4986 6.08175 12.5009L5.73961 15.6181C5.7339 15.671 5.74053 15.7246 5.75898 15.7746C5.77743 15.8246 5.8072 15.8696 5.84595 15.9061C5.88471 15.9427 5.93139 15.9697 5.98234 15.9852C6.03329 16.0006 6.08712 16.0041 6.13961 15.9952C7.09713 15.8415 9.33109 15.2756 10.1807 13.332C10.4807 12.6432 10.5422 11.8389 10.4729 11.0346C11.0114 10.6545 11.5158 10.2282 11.9804 9.76053C14.6072 7.14455 16.4194 2.41484 15.9158 0.217107ZM9.35966 6.6398C9.1198 6.39988 8.95641 6.09414 8.89018 5.76127C8.82394 5.42839 8.85782 5.08333 8.98754 4.76973C9.11726 4.45613 9.33699 4.18809 9.61893 3.99949C9.90087 3.8109 10.2324 3.71024 10.5715 3.71024C10.9106 3.71024 11.2421 3.8109 11.524 3.99949C11.8059 4.18809 12.0257 4.45613 12.1554 4.76973C12.2851 5.08333 12.319 5.42839 12.2528 5.76127C12.1865 6.09414 12.0231 6.39988 11.7833 6.6398C11.6242 6.79923 11.4353 6.9257 11.2274 7.012C11.0195 7.09829 10.7966 7.14271 10.5715 7.14271C10.3464 7.14271 10.1235 7.09829 9.91554 7.012C9.70761 6.9257 9.51872 6.79923 9.35966 6.6398Z" fill="#E5E31F"/>
<path d="M4.87137 13.128C4.67565 13.3242 4.36172 13.4007 3.98386 13.4661C3.13492 13.6109 2.38526 12.8767 2.53776 12.0176C2.59598 11.692 2.76813 11.2355 2.87527 11.1283C2.89869 11.1053 2.91428 11.0755 2.91982 11.0431C2.92536 11.0108 2.92058 10.9775 2.90615 10.948C2.89172 10.9185 2.86837 10.8943 2.83943 10.8789C2.81048 10.8634 2.77741 10.8575 2.74491 10.8619C2.27017 10.9201 1.82852 11.1355 1.49025 11.4739C0.650594 12.3151 0.571307 15.4361 0.571307 15.4361C0.571307 15.4361 3.69135 15.3568 4.53101 14.5157C4.87018 14.1774 5.08568 13.7346 5.1428 13.2588C5.15602 13.1094 4.97423 13.0204 4.87137 13.128Z" fill="#E5E31F"/>
</svg>

