<svg width="100" height="14" viewBox="0 0 100 14" fill="none" xmlns="http://www.w3.org/2000/svg">
<path d="M6.27025 14C4.20662 14 2.64568 13.4785 1.58741 12.4354C0.529135 11.3924 0 10.0039 0 8.26996V0.203193H3.47245V8.14804C3.47245 8.97436 3.71056 9.6449 4.18678 10.1597C4.67623 10.6609 5.37072 10.9115 6.27025 10.9115C7.15655 10.9115 7.83781 10.6609 8.31403 10.1597C8.80348 9.6449 9.04821 8.97436 9.04821 8.14804V0.203193H12.5008V8.24964C12.5008 9.9971 11.9717 11.3924 10.9134 12.4354C9.86837 13.4785 8.32065 14 6.27025 14Z" fill="white"/>
<path d="M27.3034 13.7562H23.2753L20.3982 9.20465L17.521 13.7562H13.4731L18.0964 6.80697L13.7707 0.203193H17.7988L20.3982 4.44993L22.9578 0.203193H27.0057L22.6999 6.78665L27.3034 13.7562Z" fill="white"/>
<path d="M37.9942 13.7562H28.2912V0.203193H37.9942V3.25109H31.7041V5.3643H37.8553V8.41219H31.7041V10.7083H37.9942V13.7562Z" fill="white"/>
<path d="M43.3887 13.7562H39.9758V0.203193H46.6032C48.0319 0.203193 49.1563 0.636671 49.9764 1.50363C50.7966 2.35704 51.2067 3.42719 51.2067 4.71408C51.2067 5.98742 50.7966 7.05757 49.9764 7.92453C49.1563 8.77794 48.0319 9.20465 46.6032 9.20465H43.3887V13.7562ZM46.1468 6.15675C46.6098 6.15675 46.9868 6.02806 47.2779 5.77068C47.5821 5.5133 47.7342 5.1611 47.7342 4.71408C47.7342 4.25351 47.5821 3.89453 47.2779 3.63716C46.9868 3.37978 46.6098 3.25109 46.1468 3.25109H43.3887V6.15675H46.1468Z" fill="white"/>
<path d="M64.0166 13.7562H60.1076L57.8852 9.20465H56.1391V13.7562H52.7262V0.203193H59.3536C60.7823 0.203193 61.9067 0.629898 62.7268 1.48331C63.547 2.33672 63.9571 3.41364 63.9571 4.71408C63.9571 5.79777 63.6925 6.68505 63.1634 7.37591C62.6475 8.05322 62.0323 8.52056 61.318 8.77794L64.0166 13.7562ZM58.8377 6.15675C59.3007 6.15675 59.6909 6.02806 60.0084 5.77068C60.3259 5.5133 60.4846 5.15433 60.4846 4.69376C60.4846 4.24673 60.3259 3.89453 60.0084 3.63716C59.6909 3.37978 59.3007 3.25109 58.8377 3.25109H56.1391V6.15675H58.8377Z" fill="white"/>
<path d="M75.5478 13.7562H65.8447V0.203193H75.5478V3.25109H69.2577V5.3643H75.4089V8.41219H69.2577V10.7083H75.5478V13.7562Z" fill="white"/>
<path d="M82.4503 14C80.0031 14 78.0453 13.2821 76.5769 11.8462L78.3826 9.22496C79.5467 10.417 80.9555 11.0131 82.6091 11.0131C83.1911 11.0131 83.6475 10.9115 83.9782 10.7083C84.3222 10.4915 84.4941 10.2206 84.4941 9.8955C84.4941 9.61103 84.3089 9.38075 83.9385 9.20465C83.5681 9.015 83.1051 8.87953 82.5495 8.79826C81.9939 8.70343 81.3921 8.5612 80.7439 8.37155C80.0957 8.16836 79.4938 7.93807 78.9382 7.6807C78.3826 7.40977 77.9196 6.98307 77.5492 6.40058C77.1788 5.81809 76.9936 5.12046 76.9936 4.30769C76.9936 3.11563 77.4632 2.09966 78.4025 1.2598C79.3549 0.419933 80.6447 0 82.2718 0C84.428 0 86.2204 0.629898 87.6491 1.88969L85.7839 4.38897C84.6727 3.45428 83.3829 2.98694 81.9146 2.98694C80.9621 2.98694 80.4859 3.31205 80.4859 3.96226C80.4859 4.21964 80.6711 4.44315 81.0415 4.6328C81.4119 4.8089 81.8749 4.94436 82.4305 5.03919C82.9861 5.13401 83.5814 5.28302 84.2163 5.48621C84.8645 5.67586 85.4664 5.90614 86.022 6.17707C86.5776 6.44799 87.0406 6.86792 87.411 7.43686C87.7814 8.00581 87.9666 8.68312 87.9666 9.4688C87.9666 10.8505 87.4837 11.9545 86.5181 12.7808C85.5524 13.5936 84.1965 14 82.4503 14Z" fill="white"/>
<path d="M94.4838 14C92.0365 14 90.0787 13.2821 88.6104 11.8462L90.416 9.22496C91.5801 10.417 92.989 11.0131 94.6425 11.0131C95.2245 11.0131 95.6809 10.9115 96.0116 10.7083C96.3556 10.4915 96.5275 10.2206 96.5275 9.8955C96.5275 9.61103 96.3424 9.38075 95.972 9.20465C95.6016 9.015 95.1386 8.87953 94.583 8.79826C94.0274 8.70343 93.4255 8.5612 92.7773 8.37155C92.1291 8.16836 91.5272 7.93807 90.9716 7.6807C90.416 7.40977 89.953 6.98307 89.5827 6.40058C89.2123 5.81809 89.0271 5.12046 89.0271 4.30769C89.0271 3.11563 89.4967 2.09966 90.4359 1.2598C91.3883 0.419933 92.6781 0 94.3052 0C96.4614 0 98.2538 0.629898 99.6825 1.88969L97.8173 4.38897C96.7061 3.45428 95.4164 2.98694 93.948 2.98694C92.9956 2.98694 92.5193 3.31205 92.5193 3.96226C92.5193 4.21964 92.7046 4.44315 93.075 4.6328C93.4453 4.8089 93.9083 4.94436 94.4639 5.03919C95.0195 5.13401 95.6148 5.28302 96.2498 5.48621C96.8979 5.67586 97.4998 5.90614 98.0554 6.17707C98.611 6.44799 99.074 6.86792 99.4444 7.43686C99.8148 8.00581 100 8.68312 100 9.4688C100 10.8505 99.5172 11.9545 98.5515 12.7808C97.5858 13.5936 96.2299 14 94.4838 14Z" fill="white"/>
</svg>

